<svg width="69" height="56" viewBox="0 0 69 56" fill="none" xmlns="http://www.w3.org/2000/svg">
<g clip-path="url(#clip0_1_22)">
<path d="M39.1496 16.87L37.8396 15.87C37.6348 15.7043 37.3729 15.626 37.1108 15.6522C36.8486 15.6784 36.6074 15.807 36.4396 16.01L18.3096 36.83L18.5896 37.14L23.0796 33C22.9299 32.9398 22.8061 32.8291 22.7297 32.6871C22.6532 32.5451 22.6289 32.3807 22.661 32.2227C22.6931 32.0646 22.7795 31.9227 22.9053 31.8218C23.0311 31.7208 23.1883 31.6671 23.3496 31.67C23.495 31.67 23.6366 31.7166 23.7536 31.803C23.8706 31.8894 23.9568 32.011 23.9996 32.15L29.9196 26.66C30.0102 26.587 30.1231 26.5472 30.2396 26.5472C30.356 26.5472 30.4689 26.587 30.5596 26.66L30.8596 26.88C30.9611 26.9528 31.0861 26.9849 31.2101 26.9701C31.3341 26.9553 31.4481 26.8946 31.5296 26.8L39.2696 18.12C39.3518 18.0339 39.4146 17.931 39.4536 17.8184C39.4925 17.7058 39.5068 17.5862 39.4954 17.4676C39.484 17.349 39.4473 17.2343 39.3876 17.1312C39.3279 17.028 39.2467 16.939 39.1496 16.87V16.87Z" fill="#303030"/>
<path d="M47.6703 22.73C43.7028 25.553 39.2581 27.6364 34.5503 28.88C29.8777 30.0683 25.0965 30.7786 20.2803 31C20.3773 31.7102 20.5516 32.4077 20.8003 33.08C23.5203 35.54 44.0003 31.34 48.0003 26.48C48.8503 25.47 47.6703 22.73 47.6703 22.73ZM23.3503 33C23.2158 33 23.0843 32.9601 22.9725 32.8854C22.8607 32.8107 22.7735 32.7045 22.722 32.5802C22.6706 32.456 22.6571 32.3192 22.6833 32.1873C22.7096 32.0554 22.7743 31.9342 22.8694 31.8391C22.9645 31.744 23.0857 31.6793 23.2176 31.653C23.3495 31.6268 23.4862 31.6403 23.6105 31.6917C23.7348 31.7432 23.841 31.8304 23.9157 31.9422C23.9904 32.054 24.0303 32.1855 24.0303 32.32C24.0316 32.4097 24.015 32.4987 23.9813 32.5818C23.9476 32.6649 23.8975 32.7404 23.8341 32.8038C23.7707 32.8672 23.6952 32.9173 23.6121 32.951C23.529 32.9847 23.4399 33.0013 23.3503 33V33Z" fill="#303030"/>
<path d="M4.0003 21.2899L4.1603 20.5999L6.7603 21.1899C6.9748 21.5861 7.10743 22.0214 7.1503 22.4699C7.19993 22.945 7.16951 23.425 7.0603 23.8899C6.93085 24.5352 6.6343 25.1352 6.2003 25.6299C5.78739 26.097 5.25497 26.4428 4.6603 26.6299C4.04739 26.8189 3.39551 26.8431 2.7703 26.6999C2.14372 26.5646 1.56617 26.2603 1.1003 25.8199C0.641569 25.3969 0.312165 24.8526 0.150299 24.2499C-0.0292664 23.5954 -0.0292664 22.9045 0.150299 22.2499C0.257777 21.76 0.450726 21.2929 0.720299 20.8699C0.975438 20.4853 1.31814 20.1665 1.7203 19.9399L2.0803 20.4899C1.7356 20.7016 1.43972 20.9839 1.21218 21.3183C0.984643 21.6527 0.830626 22.0316 0.760299 22.4299C0.636286 22.9473 0.646613 23.4877 0.790299 23.9999C0.924669 24.4863 1.1912 24.9259 1.5603 25.2699C1.93968 25.6367 2.41433 25.8896 2.9303 25.9999C3.43063 26.1404 3.95997 26.1404 4.4603 25.9999C4.93959 25.8417 5.37007 25.5628 5.7103 25.1899C6.05994 24.7873 6.3009 24.3019 6.4103 23.7799C6.57483 23.1468 6.53279 22.4776 6.2903 21.8699L4.0003 21.2899Z" fill="#303030"/>
<path d="M9.66 15L7.33 18.11L8.33 19.9L7.87 20.52L4.17 13.77L4.6 13.18L12.13 14.8L11.66 15.42L9.66 15ZM9 14.84L5 13.94L7 17.53L9 14.84Z" fill="#303030"/>
<path d="M9 8.55001L9.6 8.10001L13.41 13.2L16.55 10.85L16.93 11.36L13.2 14.15L9 8.55001Z" fill="#303030"/>
<path d="M15.3 4.38L15.97 4.08L18.61 9.86L22.18 8.24L22.44 8.82L18.2 10.75L15.3 4.38Z" fill="#303030"/>
<path d="M28.48 6.68L28.63 7.31L23.81 8.44L22.21 1.62L26.89 0.529999L27.03 1.15L23.03 2.08L23.6 4.5L27.12 3.67L27.27 4.29L23.74 5.11L24.34 7.64L28.48 6.68Z" fill="#303030"/>
<path d="M35.35 6.93L33.68 4.73C33.4935 4.74032 33.3065 4.74032 33.12 4.73L31.24 4.79L31.31 7.01H30.57L30.34 0.00999918L33 -8.21427e-07C33.7521 -0.0694589 34.5042 0.132752 35.12 0.569999C35.3795 0.778993 35.5882 1.04421 35.7302 1.34563C35.8723 1.64705 35.944 1.97681 35.94 2.31C35.9692 2.80419 35.8395 3.29476 35.57 3.71C35.2826 4.10856 34.8766 4.40606 34.41 4.56L36.16 6.9L35.35 6.93ZM34.65 3.64C34.8297 3.47535 34.9692 3.27157 35.0576 3.04442C35.1461 2.81728 35.1811 2.57284 35.16 2.33C35.1652 2.08587 35.1147 1.84377 35.0125 1.62201C34.9103 1.40025 34.759 1.20464 34.57 1.05C34.1091 0.737478 33.5548 0.592737 33 0.639999L31.1 0.709999L31.22 4.21L33.08 4.15C33.6472 4.17099 34.2034 3.99029 34.65 3.64V3.64Z" fill="#303030"/>
<path d="M40.6396 5.07L40.2796 7.46L39.5496 7.35L39.9196 5L37.8496 0L38.6296 0.12L40.3996 4.38L43.3996 0.85L44.0996 1L40.6396 5.07Z" fill="#303030"/>
<path d="M50.53 4.64999L51.4 5.77999L51.02 6.07999L50.15 4.91999L49.6 6.22999L49.18 6.04999L49.74 4.73999L48.3 4.92999V4.44999L49.72 4.28999L48.84 3.15999L49.23 2.85999L50 3.99999L50.54 2.67999L50.97 2.85999L50.46 4.19999L51.9 3.99999V4.48999L50.53 4.64999Z" fill="#303030"/>
<path d="M53.8704 12.71C53.6343 12.346 53.487 11.9315 53.4404 11.5L54.0304 11.24C54.0747 11.6364 54.2043 12.0185 54.4104 12.36C54.6338 12.743 54.9253 13.0819 55.2704 13.36C55.6269 13.7013 56.0817 13.9217 56.5704 13.99C56.747 14.0064 56.9249 13.9794 57.0887 13.9115C57.2525 13.8435 57.3973 13.7366 57.5104 13.6C57.5934 13.5085 57.6566 13.4009 57.6962 13.284C57.7357 13.167 57.7508 13.0431 57.7404 12.92C57.7074 12.6763 57.6257 12.4417 57.5004 12.23C57.3125 11.9231 57.1089 11.626 56.8904 11.34C56.6242 10.9912 56.3836 10.6236 56.1704 10.24C56.0075 9.95296 55.9182 9.63003 55.9104 9.30004C55.9097 8.92946 56.049 8.5723 56.3004 8.30004C56.5184 8.03617 56.8059 7.83869 57.1304 7.73004C57.493 7.62531 57.8778 7.62531 58.2404 7.73004C58.7076 7.88282 59.1394 8.12763 59.5104 8.45004C59.8183 8.70611 60.0907 9.00205 60.3204 9.33004C60.5329 9.6342 60.6918 9.97239 60.7904 10.33L60.2204 10.63C60.121 10.2967 59.9727 9.97991 59.7804 9.69004C59.5889 9.43118 59.3635 9.19913 59.1104 9.00004C58.7593 8.66028 58.3058 8.44587 57.8204 8.39004C57.642 8.37512 57.4627 8.40478 57.2987 8.47635C57.1346 8.54792 56.9909 8.65915 56.8804 8.80004C56.7954 8.89013 56.7308 8.99753 56.6911 9.11489C56.6514 9.23226 56.6375 9.35681 56.6504 9.48004C56.6738 9.73221 56.756 9.97538 56.8904 10.19C57.0304 10.42 57.2304 10.72 57.5004 11.08C57.7681 11.4208 58.0088 11.7819 58.2204 12.16C58.3868 12.4462 58.4796 12.7692 58.4904 13.1C58.4911 13.4706 58.3518 13.8278 58.1004 14.1C57.8817 14.3675 57.5898 14.5656 57.2604 14.67C56.8985 14.7793 56.5124 14.7793 56.1504 14.67C55.6801 14.5177 55.2449 14.2729 54.8704 13.95C54.4668 13.5987 54.1283 13.179 53.8704 12.71V12.71Z" fill="#303030"/>
<path d="M63.9297 14.17L62.5197 12.17L63.0397 11.8L66.2897 16.44L65.7697 16.81L64.3597 14.81L59.1397 18.46L58.7197 17.85L63.9297 14.17Z" fill="#303030"/>
<path d="M61.69 22.39C61.8685 21.7856 62.2154 21.2446 62.69 20.83C63.1543 20.4142 63.7199 20.1279 64.33 20C64.9519 19.8572 65.6005 19.8814 66.21 20.07C66.7983 20.2645 67.3257 20.6092 67.74 21.07C68.1708 21.5656 68.4639 22.1656 68.59 22.81C68.7556 23.4427 68.7556 24.1073 68.59 24.74C68.4066 25.3421 68.0605 25.8819 67.59 26.3C67.1128 26.7271 66.5333 27.0233 65.9077 27.16C65.2821 27.2967 64.6318 27.2691 64.02 27.08C63.4272 26.8949 62.8974 26.5487 62.49 26.08C62.0612 25.587 61.7682 24.9907 61.64 24.35C61.4872 23.7033 61.5045 23.0281 61.69 22.39V22.39ZM63 25.57C63.3339 25.9502 63.7665 26.2306 64.25 26.38C64.7483 26.5245 65.275 26.5417 65.7816 26.4299C66.2883 26.3181 66.7588 26.0809 67.15 25.74C67.5191 25.4004 67.7917 24.9691 67.94 24.49C68.0794 23.9841 68.0931 23.4518 67.9798 22.9393C67.8665 22.4269 67.6297 21.95 67.29 21.55C66.9415 21.168 66.4955 20.888 66 20.74C65.4954 20.606 64.9646 20.606 64.46 20.74C63.9509 20.8377 63.4795 21.0768 63.1 21.43C62.7275 21.7708 62.4545 22.2063 62.31 22.69C62.1742 23.1978 62.1742 23.7323 62.31 24.24C62.4195 24.7361 62.6575 25.1948 63 25.57V25.57Z" fill="#303030"/>
<path d="M60.93 34L63.52 33C63.52 32.82 63.58 32.64 63.63 32.45L64.12 30.64L62 30.09L62.19 29.38L68.95 31.19L68.27 33.72C68.1168 34.4582 67.7056 35.1177 67.11 35.58C66.8363 35.7701 66.5224 35.8942 66.1928 35.9428C65.8632 35.9914 65.5268 35.963 65.21 35.86C64.7274 35.7553 64.295 35.4892 63.9841 35.1056C63.6732 34.722 63.5024 34.2438 63.5 33.75L60.74 34.75L60.93 34ZM64.28 34.28C64.3971 34.4925 64.5561 34.6792 64.7472 34.8287C64.9383 34.9782 65.1577 35.0876 65.3921 35.1502C65.6266 35.2128 65.8713 35.2273 66.1115 35.1929C66.3517 35.1585 66.5825 35.0759 66.79 34.95C67.2314 34.5955 67.5326 34.0958 67.64 33.54L68.12 31.74L64.73 30.83L64.25 32.63C64.0655 33.1664 64.0761 33.7507 64.28 34.28V34.28Z" fill="#303030"/>
<path d="M57.34 40.44L56.83 40.05L59.83 36.1L65.41 40.33L62.51 44.16L62 43.77L64.45 40.54L62.45 39.03L60.26 41.92L59.76 41.54L62 38.65L59.93 37.08L57.34 40.44Z" fill="#303030"/>
<path d="M55.0003 48.41L53.5703 48.49V48.01L55.0003 48L54.2303 46.81L54.6203 46.56L55.3803 47.76L56.0003 46.42L56.4303 46.65L55.7503 47.91L57.1803 47.83V48.32H55.7303L56.5003 49.51L56.1103 49.76L55.3503 48.56L54.6903 49.86L54.2703 49.62L55.0003 48.41Z" fill="#303030"/>
<path d="M42 47.61L43.21 48.28C43.4129 47.8903 43.696 47.548 44.0407 47.2757C44.3854 47.0034 44.7839 46.8072 45.21 46.7C45.6074 46.5761 46.0254 46.5319 46.44 46.57C46.7997 46.5976 47.1452 46.722 47.44 46.93C47.7065 47.1308 47.9025 47.4109 48 47.73C48.1205 48.1248 48.0993 48.5492 47.94 48.93C47.6891 49.4474 47.3508 49.9176 46.94 50.32C47.2697 50.4972 47.5755 50.7156 47.85 50.97C48.0386 51.1649 48.179 51.4012 48.26 51.66C48.3112 51.8618 48.3144 52.0727 48.2693 52.2759C48.2241 52.4792 48.1319 52.6689 48 52.83C47.733 53.2146 47.3347 53.4885 46.88 53.6C46.4807 53.7523 46.0393 53.7523 45.64 53.6C45.4624 53.5236 45.305 53.4071 45.1801 53.2596C45.0552 53.1122 44.9661 52.9377 44.92 52.75C44.8151 52.4199 44.8402 52.0623 44.99 51.75C45.2195 51.2954 45.52 50.8802 45.88 50.52L43.47 49.18C43.378 49.6509 43.3578 50.133 43.41 50.61H42.8C42.7589 50.0226 42.8267 49.4327 43 48.87L41.74 48.17L42 47.61ZM43.74 48.61L46.39 50.08C46.7373 49.7483 47.0248 49.3593 47.24 48.93C47.3499 48.6401 47.3499 48.3199 47.24 48.03C47.1947 47.8568 47.1069 47.6975 46.9847 47.5666C46.8625 47.4357 46.7097 47.3372 46.54 47.28C46.1249 47.1398 45.6751 47.1398 45.26 47.28C44.9208 47.3695 44.6053 47.5323 44.3357 47.7569C44.0662 47.9815 43.8492 48.2625 43.7 48.58L43.74 48.61ZM47.5 52.61C47.5653 52.4995 47.6063 52.3763 47.6201 52.2487C47.6339 52.121 47.6202 51.9919 47.58 51.87C47.5187 51.6725 47.4087 51.4937 47.26 51.35C47.0055 51.1353 46.7269 50.9507 46.43 50.8C46.1268 51.0998 45.8615 51.4357 45.64 51.8C45.5191 52.0272 45.4905 52.2922 45.56 52.54C45.5917 52.6544 45.6473 52.7608 45.7232 52.8522C45.799 52.9435 45.8934 53.0178 46 53.07C46.2546 53.166 46.5354 53.166 46.79 53.07C47.0619 52.9975 47.2993 52.831 47.46 52.6L47.5 52.61Z" fill="#303030"/>
<path d="M29.8096 55.3199L29.9496 48.3199H30.6596L30.5496 53.9199L33.3896 49.2599H33.7396L36.3996 53.9999L36.4996 48.4299H37.2096L37.0796 55.4299H36.4696L33.5296 50.1999L30.4196 55.3299L29.8096 55.3199Z" fill="#303030"/>
<path d="M26.33 48C26.7873 48.4358 27.1145 48.9901 27.2752 49.6011C27.4359 50.212 27.4237 50.8556 27.24 51.46C27.0757 52.0789 26.7475 52.642 26.29 53.09C25.8454 53.527 25.2879 53.8317 24.68 53.97C24.0387 54.1147 23.3711 54.094 22.74 53.91C22.111 53.7564 21.5323 53.4429 21.06 53C20.6095 52.5697 20.2875 52.0227 20.13 51.42C19.9762 50.797 19.9876 50.1446 20.1629 49.5273C20.3383 48.91 20.6716 48.3491 21.13 47.9C21.5667 47.4641 22.1123 47.1533 22.71 47C23.348 46.8557 24.0122 46.8764 24.64 47.06C25.2755 47.2211 25.858 47.5451 26.33 48V48ZM22.92 47.65C22.4308 47.7639 21.9837 48.0134 21.63 48.37C21.2616 48.7369 20.9991 49.1964 20.87 49.7C20.7306 50.2005 20.7306 50.7295 20.87 51.23C20.9879 51.7169 21.241 52.1606 21.6 52.51C21.9765 52.8782 22.4414 53.1434 22.95 53.28C23.4586 53.4095 23.9915 53.4095 24.5 53.28C24.9896 53.1596 25.4383 52.9111 25.8 52.56C26.1664 52.1916 26.4286 51.7327 26.56 51.23C26.6998 50.7262 26.6998 50.1938 26.56 49.69C26.432 49.2049 26.1765 48.763 25.82 48.41C25.4415 48.0413 24.9724 47.7792 24.46 47.65C23.9561 47.5107 23.4239 47.5107 22.92 47.65V47.65Z" fill="#303030"/>
<path d="M15.3495 43L15.6195 45.75C15.7911 45.8233 15.958 45.9068 16.1195 46L17.7495 46.94L18.8495 45L19.4995 45.37L15.9995 51.4L13.7195 50.09C13.0456 49.7515 12.514 49.1844 12.2195 48.49C12.1108 48.1772 12.0742 47.8439 12.1123 47.5149C12.1504 47.1859 12.2622 46.8698 12.4395 46.59C12.672 46.1518 13.0405 45.8008 13.4895 45.59C13.9456 45.4011 14.4501 45.3626 14.9295 45.48L14.6395 42.54L15.3495 43ZM14.2095 46.16C13.9747 46.219 13.7541 46.3247 13.561 46.4708C13.368 46.617 13.2064 46.8006 13.086 47.0107C12.9655 47.2207 12.8887 47.4529 12.8601 47.6934C12.8315 47.9338 12.8517 48.1776 12.9195 48.41C13.154 48.9276 13.5603 49.3481 14.0695 49.6L15.6795 50.53L17.4295 47.53L15.8195 46.6C15.3568 46.2533 14.787 46.0799 14.2095 46.11V46.16Z" fill="#303030"/>
<path d="M9.43 38.31L9.88 37.86L13.33 41.41L8.33 46.29L5 42.85L5.46 42.4L8.29 45.31L10 43.58L7.52 41L8 40.54L10.53 43.14L12.39 41.33L9.43 38.31Z" fill="#303030"/>
<path d="M2.00035 34.38L2.24035 33L2.71035 33.07L2.44035 34.49L3.77035 34L3.93035 34.44L2.58035 34.9L3.69035 35.84L3.37035 36.2L2.30035 35.2L2.05035 36.62L1.57035 36.53L1.85035 35.11L0.510352 35.59L0.360352 35.2L1.70035 34.73L0.590352 33.8L0.920352 33.44L2.00035 34.38Z" fill="#303030"/>
</g>
<defs>
<clipPath id="clip0_1_22">
<rect width="68.93" height="55.46" fill="white"/>
</clipPath>
</defs>
</svg>
